HIERARCHY
ROOT Pelvis
{
	OFFSET 0.000000 0.000000 0.000000
	CHANNELS 6 Xposition Yposition Zposition Xrotation Yrotation Zrotation
	JOINT LeftUpLeg_virtual
	{
		OFFSET 0.000000 0.000000 0.000000
		CHANNELS 3 Xrotation Yrotation Zrotation
		JOINT LeftUpLeg
		{
			OFFSET 18.735201 -5.666702 -4.541200
			CHANNELS 3 Xrotation Yrotation Zrotation
			JOINT LeftLeg
			{
				OFFSET -0.021200 -31.938179 0.493100
				CHANNELS 3 Xrotation Yrotation Zrotation
				JOINT LeftFoot
				{
					OFFSET 0.021200 -31.938179 -4.336299
					CHANNELS 3 Xrotation Yrotation Zrotation
					JOINT LeftToeBase
					{
						OFFSET 0.943001 -26.722000 15.023500
						CHANNELS 3 Xrotation Yrotation Zrotation
						End Site
						{
							OFFSET 0 0 0
						}
					}
				}
			}
		}
	}
	JOINT RightUpLeg_virtual
	{
		OFFSET 0.000000 0.000000 0.000000
		CHANNELS 3 Xrotation Yrotation Zrotation
		JOINT RightUpLeg
		{
			OFFSET -18.735201 -5.666702 -4.541200
			CHANNELS 3 Xrotation Yrotation Zrotation
			JOINT RightLeg
			{
				OFFSET 0.018946 -31.938133 0.493100
				CHANNELS 3 Xrotation Yrotation Zrotation
				JOINT RightFoot
				{
					OFFSET -0.018946 -31.938126 -4.336299
					CHANNELS 3 Xrotation Yrotation Zrotation
					JOINT RightToeBase
					{
						OFFSET -0.943001 -26.722004 15.023500
						CHANNELS 3 Xrotation Yrotation Zrotation
						End Site
						{
							OFFSET 0 0 0
						}
					}
				}
			}
		}
	}
	JOINT Hips_virtual
	{
		OFFSET 0.000000 0.000000 0.000000
		CHANNELS 3 Xrotation Yrotation Zrotation
		JOINT Hips
		{
			OFFSET -0.000000 -0.000000 -0.000000
			CHANNELS 3 Xrotation Yrotation Zrotation
			JOINT Spine
			{
				OFFSET 0.000000 10.199997 -0.299500
				CHANNELS 3 Xrotation Yrotation Zrotation
				JOINT Spine1
				{
					OFFSET 0.000000 11.900002 -1.516600
					CHANNELS 3 Xrotation Yrotation Zrotation
					JOINT Spine2
					{
						OFFSET 0.000000 13.600006 -2.842500
						CHANNELS 3 Xrotation Yrotation Zrotation
						JOINT Neck_virtual
						{
							OFFSET 0.000000 0.000000 0.000000
							CHANNELS 3 Xrotation Yrotation Zrotation
							JOINT Neck
							{
								OFFSET 0.000000 9.624100 -2.890100
								CHANNELS 3 Xrotation Yrotation Zrotation
								JOINT Head
								{
									OFFSET 0.000000 14.068802 -1.351900
									CHANNELS 3 Xrotation Yrotation Zrotation
									End Site
									{
										OFFSET 0 0 0
									}
								}
							}
						}
						JOINT LeftShoulder_virtual
						{
							OFFSET 0.000000 0.000000 0.000000
							CHANNELS 3 Xrotation Yrotation Zrotation
							JOINT LeftShoulder
							{
								OFFSET 15.263000 10.923401 -0.547700
								CHANNELS 3 Xrotation Yrotation Zrotation
								JOINT LeftArm
								{
									OFFSET 25.438599 -2.830597 -13.032500
									CHANNELS 3 Xrotation Yrotation Zrotation
									JOINT LeftForeArm
									{
										OFFSET 29.960503 0.000000 0.000000
										CHANNELS 3 Xrotation Yrotation Zrotation
										JOINT LeftHand
										{
											OFFSET 27.849251 0.000000 0.000000
											CHANNELS 3 Xrotation Yrotation Zrotation
											End Site
											{
												OFFSET 0 0 0
											}
										}
									}
								}
							}
						}
						JOINT RightShoulder_virtual
						{
							OFFSET 0.000000 0.000000 0.000000
							CHANNELS 3 Xrotation Yrotation Zrotation
							JOINT RightShoulder
							{
								OFFSET -15.263000 10.923401 -0.547700
								CHANNELS 3 Xrotation Yrotation Zrotation
								JOINT RightArm
								{
									OFFSET -25.438599 -2.830597 -13.032500
									CHANNELS 3 Xrotation Yrotation Zrotation
									JOINT RightForeArm
									{
										OFFSET -29.960503 0.000000 0.000000
										CHANNELS 3 Xrotation Yrotation Zrotation
										JOINT RightHand
										{
											OFFSET -27.849251 0.000000 0.000000
											CHANNELS 3 Xrotation Yrotation Zrotation
											End Site
											{
												OFFSET 0 0 0
											}
										}
									}
								}
							}
						}
					}
				}
			}
		}
	}
}
MOTION
Frames: 10
Frame Time: 0.03333333
1.050202 113.664940 3.055286 0.000000 0.000000 0.000000 -88.409600 4.610510 5.426283 -10.436022 19.304268 23.943324 11.461501 2.204658 -0.595776 15.804175 37.888374 -29.219368 0.000000 0.000000 0.000000 -89.107925 6.622219 5.608215 -7.007670 -16.274478 -14.500010 9.167413 -6.571119 -8.307848 25.580252 -24.617800 31.644024 0.000000 0.000000 0.000000 -88.324905 5.110779 6.315778 0.372434 -1.606880 -3.414575 2.842030 0.383844 2.738055 1.158528 -3.039800 0.342892 0.000000 0.000000 0.000000 0.288148 -3.099141 0.131265 -3.191532 -0.400021 -0.983655 0.000000 0.000000 0.000000 -0.115479 -2.947246 -0.223843 0.157155 1.818444 -3.947996 34.092251 -33.562313 -53.762864 -3.153640 -77.202557 -1.264047 0.000000 0.000000 0.000000 0.302031 -2.607397 0.004862 1.076666 1.527864 12.525883 37.219528 33.283867 34.318647 -177.815574 72.218630 177.147144 0.000000 0.000000 0.000000 
0.994640 113.709305 3.009266 0.000000 0.000000 0.000000 -88.402619 4.541117 5.398846 -10.317808 19.158845 23.940397 11.291584 2.059087 -0.645751 16.046788 37.629346 -29.567964 0.000000 0.000000 0.000000 -89.019590 6.605447 5.643244 -6.970080 -16.271360 -14.381534 8.883689 -6.585113 -8.351161 25.189698 -24.534820 31.712531 0.000000 0.000000 0.000000 -88.254473 5.094653 6.312688 0.373939 -1.627096 -3.292748 2.680231 0.295683 2.763491 1.378544 -3.012932 0.329112 0.000000 0.000000 0.000000 0.374454 -3.101633 0.101158 -3.232304 -0.365625 -1.022193 0.000000 0.000000 0.000000 0.072860 -2.935498 -0.256287 0.105760 1.662646 -3.911736 33.864061 -33.320764 -53.751075 -3.192780 -77.035054 -1.343256 0.000000 0.000000 0.000000 0.487992 -2.599459 -0.014483 1.162906 1.533267 12.656747 36.043045 32.909402 33.599234 -177.958052 71.557153 177.447222 0.000000 0.000000 0.000000 
0.912368 113.767311 3.023029 0.000000 0.000000 0.000000 -88.299162 4.447360 5.430471 -10.369802 19.152337 24.072640 11.234346 1.928333 -0.810074 17.261553 37.057830 -30.341524 0.000000 0.000000 0.000000 -88.773205 6.511866 5.638561 -7.170314 -16.342295 -14.216217 8.870097 -6.630649 -8.390022 25.478392 -24.154479 32.088942 0.000000 0.000000 0.000000 -88.102911 5.063092 6.368421 0.324754 -1.663491 -3.253699 2.495403 0.131406 2.778487 1.760223 -3.020920 0.372010 0.000000 0.000000 0.000000 0.573102 -3.151517 0.133236 -3.246575 -0.335671 -1.055830 0.000000 0.000000 0.000000 0.466870 -2.968678 -0.228451 0.106805 1.541872 -4.000451 33.615432 -32.352680 -53.641690 -3.287915 -77.363961 -1.499669 0.000000 0.000000 0.000000 0.781706 -2.664922 0.000229 1.198855 1.783534 12.805314 32.960604 33.441760 32.867475 -178.412956 71.405352 178.142494 0.000000 0.000000 0.000000 
0.800027 113.818176 3.066105 0.000000 0.000000 0.000000 -88.037334 4.327301 5.520437 -10.637315 19.191104 24.239097 11.485600 1.922572 -0.966405 18.681402 36.630038 -30.918863 0.000000 0.000000 0.000000 -88.382662 6.391197 5.658252 -7.662182 -16.263818 -14.048703 9.293874 -6.661167 -8.515226 26.347622 -23.642915 32.464330 0.000000 0.000000 0.000000 -87.826390 5.029674 6.503622 0.287170 -1.759395 -3.329519 2.337747 -0.042826 2.727295 2.333389 -2.982248 0.447560 0.000000 0.000000 0.000000 0.946818 -3.143015 0.198956 -3.211763 -0.329956 -1.081345 0.000000 0.000000 0.000000 1.056479 -2.950859 -0.162020 0.151472 1.365652 -4.248555 33.087762 -31.047714 -53.322959 -3.294508 -77.965967 -1.597068 0.000000 0.000000 0.000000 1.198780 -2.698997 0.024380 1.186092 2.193823 13.055359 28.099526 34.703874 32.664608 -179.409877 71.322898 179.420887 0.000000 0.000000 0.000000 
0.679394 113.846626 3.102417 0.000000 0.000000 0.000000 -87.582532 4.129579 5.639148 -10.775925 19.077085 24.223104 11.719494 1.879632 -1.005220 19.120310 36.431064 -31.084737 0.000000 0.000000 0.000000 -87.877125 6.251134 5.761784 -8.295446 -15.985443 -13.891160 10.020080 -6.747949 -8.797080 26.742878 -23.534303 32.434724 0.000000 0.000000 0.000000 -87.416279 4.955004 6.706284 0.269562 -1.871009 -3.487393 2.271205 -0.128445 2.574187 3.130562 -2.762680 0.521992 0.000000 0.000000 0.000000 1.582518 -2.961652 0.276756 -3.098000 -0.357500 -1.102585 0.000000 0.000000 0.000000 1.847462 -2.748095 -0.086075 0.224743 1.108668 -4.631944 32.150476 -29.976392 -52.547108 -3.102403 -78.600219 -1.511260 0.000000 0.000000 0.000000 1.787285 -2.553964 0.035314 1.108051 2.695356 13.453158 21.480469 36.201826 33.641769 179.139128 70.877501 -178.892572 0.000000 0.000000 0.000000 
0.541784 113.882156 3.035187 0.000000 0.000000 0.000000 -87.043897 3.875061 5.810414 -10.497227 18.831622 23.973435 11.509156 1.668773 -0.954362 18.612436 36.179953 -31.195052 0.000000 0.000000 0.000000 -87.347355 6.083835 5.969391 -8.866063 -15.666038 -13.747990 10.686800 -6.936294 -9.165507 25.981360 -24.004346 32.051226 0.000000 0.000000 0.000000 -86.942776 4.844593 6.964942 0.293782 -1.953327 -3.612657 2.355037 -0.036795 2.290746 4.194656 -2.244129 0.559161 0.000000 0.000000 0.000000 2.554319 -2.486933 0.329746 -2.905507 -0.415837 -1.121935 0.000000 0.000000 0.000000 2.876580 -2.267492 -0.035180 0.319927 0.783671 -5.076830 30.909584 -29.860395 -51.125725 -2.881166 -79.002804 -1.413883 0.000000 0.000000 0.000000 2.643808 -2.127678 0.030072 0.962817 3.224516 13.991354 13.413354 37.186128 36.118607 177.601120 69.786870 -177.195953 0.000000 0.000000 0.000000 
0.403416 113.935837 2.890816 0.000000 0.000000 0.000000 -86.585051 3.640600 6.038894 -10.064477 18.845482 23.713930 11.010882 1.506932 -0.949260 17.802208 35.854668 -31.404254 0.000000 0.000000 0.000000 -86.870635 5.916113 6.207331 -9.317416 -15.472653 -13.677509 11.187096 -7.088967 -9.439880 24.548096 -24.513503 31.736191 0.000000 0.000000 0.000000 -86.464779 4.745808 7.244010 0.265253 -2.002976 -3.645429 2.602402 0.235078 1.932037 5.529275 -1.415932 0.527182 0.000000 0.000000 0.000000 3.887249 -1.688336 0.327515 -2.642770 -0.488130 -1.134614 0.000000 0.000000 0.000000 4.158863 -1.483795 -0.041717 0.428683 0.482122 -5.498355 29.422761 -30.844089 -48.998944 -2.684022 -79.093550 -1.387363 0.000000 0.000000 0.000000 3.829505 -1.374092 -0.005967 0.765033 3.760484 14.633957 4.674234 37.070237 39.748122 176.493085 67.817290 -176.015792 0.000000 0.000000 0.000000 
0.307364 113.985046 2.691280 0.000000 0.000000 0.000000 -86.293143 3.564742 6.322815 -9.879511 19.181483 23.606614 10.648796 1.526167 -1.020999 16.883531 35.653526 -31.474686 0.000000 0.000000 0.000000 -86.516367 5.810158 6.427418 -9.696826 -15.486808 -13.725154 11.505732 -7.061437 -9.542234 23.506600 -24.522401 31.836669 0.000000 0.000000 0.000000 -86.069843 4.726218 7.529875 0.233453 -2.007777 -3.597094 2.988991 0.670931 1.561790 7.115035 -0.316285 0.407377 0.000000 0.000000 0.000000 5.578286 -0.624195 0.226551 -2.346415 -0.552077 -1.146382 0.000000 0.000000 0.000000 5.711529 -0.429082 -0.137046 0.551300 0.344086 -5.707864 27.761828 -32.904774 -46.274552 -2.559143 -78.825868 -1.480018 0.000000 0.000000 0.000000 5.347205 -0.337083 -0.082454 0.529975 4.327559 15.230654 -3.497636 35.740433 43.543901 176.123340 64.992385 -175.615830 0.000000 0.000000 0.000000 
0.254268 114.010437 2.430866 0.000000 0.000000 0.000000 -86.138500 3.684367 6.589581 -10.000965 19.441491 23.594788 10.637215 1.597088 -1.042747 15.975905 35.650097 -31.274384 0.000000 0.000000 0.000000 -86.339916 5.890880 6.645661 -9.945075 -15.545630 -13.816369 11.539225 -6.775296 -9.563051 23.405813 -23.980810 32.272763 0.000000 0.000000 0.000000 -85.822017 4.862128 7.796428 0.229782 -2.090987 -3.533907 3.406444 1.204975 1.253935 8.909554 0.910069 0.205057 0.000000 0.000000 0.000000 7.563008 0.575171 0.019094 -2.047159 -0.596626 -1.165878 0.000000 0.000000 0.000000 7.523184 0.759368 -0.319290 0.682502 0.395614 -5.631207 26.069866 -35.812236 -43.173957 -2.690433 -78.140950 -1.830033 0.000000 0.000000 0.000000 7.186078 0.865608 -0.215598 0.301137 4.947477 15.633787 -10.076545 33.629761 46.651230 176.357083 61.543659 -175.814506 0.000000 0.000000 0.000000 
0.255840 114.006149 2.245869 0.000000 0.000000 0.000000 -86.096932 3.963826 6.782150 -10.145537 19.396503 23.541475 10.767219 1.572289 -0.932851 15.032384 35.734969 -30.944227 0.000000 0.000000 0.000000 -86.339909 6.161224 6.833163 -9.966861 -15.433282 -13.836735 11.392522 -6.313445 -9.591740 23.843021 -23.289734 32.649196 0.000000 0.000000 0.000000 -85.737480 5.164433 8.001686 0.245518 -2.208799 -3.508584 3.807919 1.726740 1.055086 10.882901 2.082364 -0.052132 0.000000 0.000000 0.000000 9.732097 1.718406 -0.262640 -1.769600 -0.614821 -1.206020 0.000000 0.000000 0.000000 9.563919 1.900591 -0.574258 0.794470 0.642209 -5.298810 24.428855 -39.195594 -39.992329 -2.955638 -77.198036 -2.255004 0.000000 0.000000 0.000000 9.304463 2.044596 -0.399033 0.116505 5.661873 15.742693 -14.614274 31.527402 48.822435 176.834513 58.095130 -176.226066 0.000000 0.000000 0.000000 
